<?xml version="1.0" encoding="UTF-8"?>
<svg version="1.1" xmlns="http://www.w3.org/2000/svg" width="356" height="159">
<path d="M0 0 C21.13272827 2.75899508 36.82151926 9.27609708 54 22 C52.56969125 27.10824553 50.28375005 31.01965788 47.375 35.375 C45.93125 37.56125 44.4875 39.7475 43 42 C53.23 42 63.46 42 74 42 C70.38486525 36.49207959 70.38486525 36.49207959 66.75976562 30.99072266 C66.31310547 30.3054248 65.86644531 29.62012695 65.40625 28.9140625 C64.94541016 28.2123291 64.48457031 27.5105957 64.00976562 26.78759766 C63 25 63 25 63 23 C62.34 22.67 61.68 22.34 61 22 C61.94875 21.649375 62.8975 21.29875 63.875 20.9375 C70.16615615 18.25038674 75.73837359 13.92041976 80.92578125 9.515625 C86.31303731 5.67758798 92.85172361 4.61729756 99.1875 3.125 C100.45787109 2.8053125 101.72824219 2.485625 103.03710938 2.15625 C113.28504795 -0.33663828 113.28504795 -0.33663828 117 1 C117.09796875 1.73605469 117.1959375 2.47210938 117.296875 3.23046875 C118.17082486 8.93374502 118.86152256 12.72357331 123 17 C123 17.66 123 18.32 123 19 C126.58752742 20.86551426 130.27812193 22.42535928 134 24 C134 24.66 134 25.32 134 26 C126.95371915 25.74377161 122.30417851 23.68788348 117 19 C113.60018615 14.86530952 111.98246446 11.23604003 111 6 C95.69189896 10.49921504 83.46477025 14.53522975 72 26 C73.98 28.97 75.96 31.94 78 35 C84.23317882 31.83394092 89.09222398 28.40230481 94.15234375 23.57421875 C96 22 96 22 98 22 C97.49682776 41.09830556 94.03765306 54.51373843 84 71 C83.67 71.66 83.34 72.32 83 73 C82.175 73.804375 81.35 74.60875 80.5 75.4375 C77.82063363 77.81120237 77.82063363 77.81120237 77 81 C75.33333333 82.33333333 73.66666667 83.66666667 72 85 C69.9183695 87.26731585 67.94774128 89.61719623 66 92 C67.59328125 92.74443359 67.59328125 92.74443359 69.21875 93.50390625 C82.95270417 100.0600392 82.95270417 100.0600392 88.51953125 105.65234375 C90.07320746 107.24927139 90.07320746 107.24927139 93 108 C93.3721042 109.32303717 93.70630173 110.65737935 94 112 C94.66 112.33 95.32 112.66 96 113 C94.515 113.495 94.515 113.495 93 114 C90.50652157 112.7474849 88.20989187 111.44477016 85.84765625 109.9765625 C85.15111435 109.55579437 84.45457245 109.13502625 83.73692322 108.70150757 C81.50612485 107.35225917 79.28393557 105.98959956 77.0625 104.625 C74.84364506 103.26931352 72.62308152 101.91666234 70.39878845 100.56991577 C69.01415104 99.73083064 67.6327886 98.88631169 66.25514221 98.03579712 C61.87481439 95.37178169 61.87481439 95.37178169 57 94 C54.2584264 95.17056411 54.2584264 95.17056411 51.421875 97.0078125 C49.80345703 97.99394531 49.80345703 97.99394531 48.15234375 99 C47.01806342 99.70806788 45.88394986 100.416403 44.75 101.125 C43.64269531 101.80304688 42.53539062 102.48109375 41.39453125 103.1796875 C37.40721309 105.62612766 33.42892032 108.08426779 29.49023438 110.60839844 C24.19100653 114 24.19100653 114 22 114 C22.75 111.125 22.75 111.125 24 108 C25.32013383 107.30756307 26.65571104 106.64428985 28 106 C29.33939774 104.7788653 30.64970442 103.5254367 31.9375 102.25 C37.28336377 97.35111481 43.34216129 94.71664516 50 92 C48.57063361 90.18107883 47.13123035 88.37004119 45.6875 86.5625 C44.88699219 85.55316406 44.08648437 84.54382813 43.26171875 83.50390625 C41.18021795 80.78672091 41.18021795 80.78672091 38 80 C37.66449438 78.66721162 37.33174011 77.33373063 37 76 C35.65462834 73.98619105 34.25054707 72.01121035 32.8125 70.0625 C22.27514309 55.25023844 18.79009171 39.92690843 18 22 C21.23486594 22.70177877 22.89181195 23.36476494 25 26 C25 26.66 25 27.32 25 28 C25.66 28.226875 26.32 28.45375 27 28.6875 C30.92734533 30.40571358 34.41260178 32.66774607 38 35 C41.27286682 32.2180632 42.96427697 28.72045933 45 25 C32.57822643 15.78852895 21.37970228 9.91684009 6 7 C5.4740625 8.7634375 5.4740625 8.7634375 4.9375 10.5625 C2.37596854 17.2939664 -2.23788236 21.40926108 -8.6875 24.4375 C-11.87261403 25.78961768 -13.38227999 26 -17 26 C-17 25.34 -17 24.68 -17 24 C-16.41992188 23.731875 -15.83984375 23.46375 -15.2421875 23.1875 C-9.29952507 20.20636241 -4.98944226 17.05995413 -2 11 C-1.00485832 7.35595461 -0.40018482 3.75345765 0 0 Z M25 35 C25.53579152 45.53723329 29.41710127 55.10871684 35 64 C35.33 64 35.66 64 36 64 C36 57.07 36 50.14 36 43 C36.99 42.67 37.98 42.34 39 42 C34.38 39.69 29.76 37.38 25 35 Z M85.0625 37.875 C84.18722656 38.40867188 83.31195313 38.94234375 82.41015625 39.4921875 C80.58807057 40.63209847 78.78830687 41.80779542 77 43 C78.98 43.66 80.96 44.32 83 45 C83.33 49.29 83.66 53.58 84 58 C89.71073097 52.28926903 91.26296188 42.92315977 92 35 C89.1108444 35 87.5092208 36.37319487 85.0625 37.875 Z M43 50 C43 51.65 43 53.3 43 55 C54.22 55 65.44 55 77 55 C76.505 52.525 76.505 52.525 76 50 C65.11 50 54.22 50 43 50 Z M71.7109375 62.21875 C70.89251373 62.24094604 70.07408997 62.26314209 69.23086548 62.28601074 C66.61223671 62.3570875 63.99361833 62.42853954 61.375 62.5 C59.60156317 62.54820177 57.82812568 62.59637916 56.0546875 62.64453125 C51.70311726 62.76273782 47.35155629 62.88128101 43 63 C43 64.65 43 66.3 43 68 C41.35 68 39.7 68 38 68 C40.72190685 72.22104999 40.72190685 72.22104999 44 76 C44.66 77.03125 45.32 78.0625 46 79.125 C46.66 80.07375 47.32 81.0225 48 82 C48.66 82 49.32 82 50 82 C50.185625 82.556875 50.37125 83.11375 50.5625 83.6875 C52.66360714 87.06754192 55.70665994 88.85140381 59 91 C60.13281549 89.86718451 61.26415566 88.7328763 62.390625 87.59375 C63.50570542 86.4894956 64.64296023 85.4073584 65.796875 84.34375 C72.15107499 78.34538521 79.19489904 70.41530288 82 62 C78.56923839 62 75.14022967 62.12486903 71.7109375 62.21875 Z " fill="#3D3D3D" transform="translate(122,0)"/>
<path d="M0 0 C21.13272827 2.75899508 36.82151926 9.27609708 54 22 C52.56952311 27.10884605 50.28610306 31.01744261 47.375 35.375 C46.95476562 36.01566406 46.53453125 36.65632813 46.1015625 37.31640625 C45.07370232 38.88155698 44.03768114 40.44134314 43 42 C43.92337158 42 44.84674316 42 45.7980957 42 C77 42 77 42 80 44 C65.48 44.33 50.96 44.66 36 45 C36.33 44.01 36.66 43.02 37 42 C33.37 40.02 29.74 38.04 26 36 C27.61652492 45.29501832 29.93133505 53.95656303 35 62 C35.66 61.67 36.32 61.34 37 61 C37.495 63.97 37.495 63.97 38 67 C40.475 66.505 40.475 66.505 43 66 C43 66.99 43 67.98 43 69 C41.68 69 40.36 69 39 69 C39.78375 69.7425 40.5675 70.485 41.375 71.25 C43.6188342 73.60068345 44.77815741 75.08637535 46 78 C46.37125 78.7425 46.7425 79.485 47.125 80.25 C47.41375 80.8275 47.7025 81.405 48 82 C48.66 82 49.32 82 50 82 C50.598125 82.763125 51.19625 83.52625 51.8125 84.3125 C54.0228194 87.02803527 55.93253932 88.38106242 59 90 C59.515625 89.29875 60.03125 88.5975 60.5625 87.875 C65.53720346 82.00740105 71.39735959 77.87583567 78 74 C78 78 78 78 77 81 C75.33333333 82.33333333 73.66666667 83.66666667 72 85 C69.9183695 87.26731585 67.94774128 89.61719623 66 92 C67.59328125 92.74443359 67.59328125 92.74443359 69.21875 93.50390625 C82.95270417 100.0600392 82.95270417 100.0600392 88.51953125 105.65234375 C90.07320746 107.24927139 90.07320746 107.24927139 93 108 C93.3721042 109.32303717 93.70630173 110.65737935 94 112 C94.66 112.33 95.32 112.66 96 113 C94.515 113.495 94.515 113.495 93 114 C90.50652157 112.7474849 88.20989187 111.44477016 85.84765625 109.9765625 C85.15111435 109.55579437 84.45457245 109.13502625 83.73692322 108.70150757 C81.50612485 107.35225917 79.28393557 105.98959956 77.0625 104.625 C74.84364506 103.26931352 72.62308152 101.91666234 70.39878845 100.56991577 C69.01415104 99.73083064 67.6327886 98.88631169 66.25514221 98.03579712 C61.87481439 95.37178169 61.87481439 95.37178169 57 94 C54.2584264 95.17056411 54.2584264 95.17056411 51.421875 97.0078125 C49.80345703 97.99394531 49.80345703 97.99394531 48.15234375 99 C47.01806342 99.70806788 45.88394986 100.416403 44.75 101.125 C43.64269531 101.80304688 42.53539062 102.48109375 41.39453125 103.1796875 C37.40721309 105.62612766 33.42892032 108.08426779 29.49023438 110.60839844 C24.19100653 114 24.19100653 114 22 114 C22.75 111.125 22.75 111.125 24 108 C25.32013383 107.30756307 26.65571104 106.64428985 28 106 C29.33939774 104.7788653 30.64970442 103.5254367 31.9375 102.25 C37.28336377 97.35111481 43.34216129 94.71664516 50 92 C48.57063361 90.18107883 47.13123035 88.37004119 45.6875 86.5625 C44.88699219 85.55316406 44.08648437 84.54382813 43.26171875 83.50390625 C41.18021795 80.78672091 41.18021795 80.78672091 38 80 C37.66449438 78.66721162 37.33174011 77.33373063 37 76 C35.65462834 73.98619105 34.25054707 72.01121035 32.8125 70.0625 C22.27514309 55.25023844 18.79009171 39.92690843 18 22 C21.23486594 22.70177877 22.89181195 23.36476494 25 26 C25 26.66 25 27.32 25 28 C25.66 28.226875 26.32 28.45375 27 28.6875 C30.92734533 30.40571358 34.41260178 32.66774607 38 35 C41.27286682 32.2180632 42.96427697 28.72045933 45 25 C32.57822643 15.78852895 21.37970228 9.91684009 6 7 C5.4740625 8.7634375 5.4740625 8.7634375 4.9375 10.5625 C2.37596854 17.2939664 -2.23788236 21.40926108 -8.6875 24.4375 C-11.87261403 25.78961768 -13.38227999 26 -17 26 C-17 25.34 -17 24.68 -17 24 C-16.41992188 23.731875 -15.83984375 23.46375 -15.2421875 23.1875 C-9.29952507 20.20636241 -4.98944226 17.05995413 -2 11 C-1.00485832 7.35595461 -0.40018482 3.75345765 0 0 Z " fill="#484848" transform="translate(122,0)"/>
<path d="M0 0 C3.9303143 1.31010477 4.17008353 2.74375951 6 6.375 C7.7107684 9.75198554 9.1568891 12.48137458 12 15 C14 17 14 17 14.9375 19.0625 C15.90403542 21.34565884 15.90403542 21.34565884 19 22 C21.67100484 20.65391036 24.14894679 19.25273365 26.6875 17.6875 C27.80850098 17.01702637 27.80850098 17.01702637 28.95214844 16.33300781 C32.85893603 13.98171566 36.70346329 11.55458855 40.50390625 9.03515625 C41.57475464 8.33483276 41.57475464 8.33483276 42.66723633 7.62036133 C44.03357129 6.72137667 45.38944964 5.80625045 46.7331543 4.8737793 C48.609375 3.640625 48.609375 3.640625 52 2 C55.97363156 3.16776281 59.43221216 5.2992682 63 7.37109375 C64.134375 8.02787109 65.26875 8.68464844 66.4375 9.36132812 C67.62502495 10.0533426 68.81252474 10.74540027 70 11.4375 C71.18732732 12.12594893 72.37482583 12.81410273 73.5625 13.50195312 C82.71940293 18.81399738 82.71940293 18.81399738 85.6875 20.78149414 C86.450625 21.18360107 87.21375 21.58570801 88 22 C91.67046306 20.77651231 92.24385138 19.5956501 94.375 16.4375 C94.9834375 15.53773437 95.591875 14.63796875 96.21875 13.7109375 C100.72442155 7.1674749 100.72442155 7.1674749 104 0 C104.99 0 105.98 0 107 0 C107 4.95 107 9.9 107 15 C106.34 15 105.68 15 105 15 C104.9175 15.70125 104.835 16.4025 104.75 17.125 C102.8773826 24.30336669 97.50684429 28.48224911 92 33 C91.53851563 32.63648438 91.07703125 32.27296875 90.6015625 31.8984375 C78.12827826 22.28464135 64.24491215 14.43076359 48 16 C37.74824944 18.22311815 27.87556823 22.23815753 20.125 29.4375 C17.30707148 31.96161606 17.30707148 31.96161606 14.5 32.3125 C8.12965686 28.96806985 3.90347912 23.33002775 0.8671875 16.91015625 C-0.78332331 11.37127987 -0.37050745 5.71404824 0 0 Z " fill="#303030" transform="translate(127,93)"/>
<path d="M0 0 C5.25111196 -0.02290839 10.50205178 -0.04283563 15.75317383 -0.05493164 C17.54094021 -0.05997218 19.32870245 -0.06680454 21.11645508 -0.07543945 C23.68051168 -0.0875173 26.24451397 -0.09323094 28.80859375 -0.09765625 C29.6127623 -0.10281754 30.41693085 -0.10797882 31.24546814 -0.11329651 C33.16401715 -0.11349215 35.08245368 -0.06201983 37 0 C38 1 38 1 38 6 C27.44 6 16.88 6 6 6 C6 6.66 6 7.32 6 8 C16.56 8 27.12 8 38 8 C38 12.33333333 38 16.66666667 38 21 C25.46 21 12.92 21 0 21 C0 14.07 0 7.14 0 0 Z " fill="#282828" transform="translate(40,138)"/>
<path d="M0 0 C6.24801086 -0.02290513 12.49587715 -0.04283339 18.74389648 -0.05493164 C20.87118014 -0.05997298 22.99846031 -0.06680591 25.12573242 -0.07543945 C28.17627826 -0.08751379 31.22677845 -0.09323014 34.27734375 -0.09765625 C35.71327126 -0.10539818 35.71327126 -0.10539818 37.1782074 -0.11329651 C38.49946373 -0.11340981 38.49946373 -0.11340981 39.84741211 -0.11352539 C40.62684677 -0.115746 41.40628143 -0.11796661 42.20933533 -0.12025452 C44 0 44 0 45 1 C45.15215174 3.28812814 45.22186492 5.58199128 45.25 7.875 C45.27578125 9.13054688 45.3015625 10.38609375 45.328125 11.6796875 C45 15 45 15 44.00366211 16.68920898 C40.78535888 18.79461535 37.32987259 18.36546035 33.61328125 18.29296875 C32.79627243 18.28872391 31.97926361 18.28447906 31.13749695 18.28010559 C28.52882893 18.26331691 25.92093438 18.22566519 23.3125 18.1875 C21.54363095 18.17245337 19.77474979 18.15876492 18.00585938 18.14648438 C13.67027504 18.11341286 9.33526864 18.0616299 5 18 C4.67 19.32 4.34 20.64 4 22 C2.68 22 1.36 22 0 22 C0 14.74 0 7.48 0 0 Z M5 5 C5 6.65 5 8.3 5 10 C16.22 10 27.44 10 39 10 C38.505 7.525 38.505 7.525 38 5 C27.11 5 16.22 5 5 5 Z " fill="#111111" transform="translate(160,45)"/>
<path d="M0 0 C4.76942426 -0.06893707 9.53711478 -0.12864755 14.30664062 -0.16479492 C15.92844506 -0.17986565 17.55020884 -0.20032593 19.171875 -0.22631836 C21.50531046 -0.26277829 23.83820631 -0.27974314 26.171875 -0.29296875 C26.89493835 -0.30845261 27.61800171 -0.32393646 28.36297607 -0.33988953 C31.52663787 -0.34094311 33.67718818 -0.1810716 36.46264648 1.38134766 C38 3 38 3 38.42578125 5.19140625 C38.38839844 5.97386719 38.35101563 6.75632813 38.3125 7.5625 C38.27576172 8.74005859 38.27576172 8.74005859 38.23828125 9.94140625 C38 12 38 12 37 14 C37.28241883 16.3400417 37.61250787 18.67504723 38 21 C35.69 21 33.38 21 31 21 C30.67 19.68 30.34 18.36 30 17 C22.08 16.67 14.16 16.34 6 16 C6 17.65 6 19.3 6 21 C4.02 21 2.04 21 0 21 C0 14.07 0 7.14 0 0 Z M6 6 C6 7.32 6 8.64 6 10 C14.58 10 23.16 10 32 10 C32 8.68 32 7.36 32 6 C23.42 6 14.84 6 6 6 Z " fill="#1F1F1F" transform="translate(278,138)"/>
<path d="M0 0 C2.18590685 -0.00218931 4.37131113 -0.02036584 6.55712891 -0.03930664 C7.9464501 -0.04224028 9.33577369 -0.04422527 10.72509766 -0.04516602 C11.98902344 -0.0492749 13.25294922 -0.05338379 14.55517578 -0.05761719 C17.69384766 0.18530273 17.69384766 0.18530273 20.69384766 2.18530273 C20.96955372 5.10245075 21.06610376 7.77398534 21.00634766 10.68530273 C21.00957031 11.4703418 21.01279297 12.25538086 21.01611328 13.06420898 C20.96088635 18.91826404 20.96088635 18.91826404 18.69384766 21.18530273 C16.12457735 21.37260026 13.66510789 21.44104916 11.09619141 21.41577148 C9.97199547 21.41508415 9.97199547 21.41508415 8.8250885 21.41438293 C7.24055397 21.41136084 5.65602239 21.4034758 4.0715332 21.39111328 C1.63758907 21.37284957 -0.79597496 21.37060363 -3.22998047 21.37084961 C-4.76709315 21.36593474 -6.30420325 21.36010656 -7.84130859 21.35327148 C-8.5735817 21.35215866 -9.3058548 21.35104584 -10.06031799 21.34989929 C-15.19009996 21.30135512 -15.19009996 21.30135512 -16.30615234 20.18530273 C-16.39266845 18.7696015 -16.41320138 17.34970773 -16.40380859 15.93139648 C-16.40058594 15.07739258 -16.39736328 14.22338867 -16.39404297 13.34350586 C-16.38566406 12.44567383 -16.37728516 11.5478418 -16.36865234 10.62280273 C-16.36414063 9.72110352 -16.35962891 8.8194043 -16.35498047 7.89038086 C-16.34315459 5.6552896 -16.32667455 3.42032837 -16.30615234 1.18530273 C-11.08390228 -0.55544729 -5.46791821 -0.00061534 0 0 Z M-10.30615234 6.18530273 C-10.63615234 9.15530273 -10.96615234 12.12530273 -11.30615234 15.18530273 C-2.72615234 15.18530273 5.85384766 15.18530273 14.69384766 15.18530273 C14.69384766 12.21530273 14.69384766 9.24530273 14.69384766 6.18530273 C6.44384766 6.18530273 -1.80615234 6.18530273 -10.30615234 6.18530273 Z " fill="#202020" transform="translate(255.30615234375,137.814697265625)"/>
<path d="M0 0 C4.93012937 -0.06886368 9.85859126 -0.12859649 14.78881836 -0.16479492 C16.4659592 -0.17988384 18.14306057 -0.20035748 19.82006836 -0.22631836 C22.23040504 -0.26269811 24.64022019 -0.27972486 27.05078125 -0.29296875 C27.80087967 -0.30845261 28.55097809 -0.32393646 29.32380676 -0.33988953 C34.5020031 -0.34156454 34.5020031 -0.34156454 36.97412109 1.35400391 C38.48441835 3.77723668 38.3614446 5.73500813 38.3125 8.5625 C38.30863281 9.53316406 38.30476563 10.50382813 38.30078125 11.50390625 C38 14 38 14 36 16 C33.11083984 16.31884766 33.11083984 16.31884766 29.4609375 16.4140625 C28.15898437 16.45273438 26.85703125 16.49140625 25.515625 16.53125 C24.13542138 16.56270763 22.75521296 16.59395491 21.375 16.625 C19.98695459 16.66317934 18.59893289 16.70223105 17.2109375 16.7421875 C13.80742815 16.83672943 10.40392835 16.92227897 7 17 C7 18.32 7 19.64 7 21 C4.69 21 2.38 21 0 21 C0 14.07 0 7.14 0 0 Z M6 6 C6 7.32 6 8.64 6 10 C14.58 10 23.16 10 32 10 C32 8.68 32 7.36 32 6 C23.42 6 14.84 6 6 6 Z " fill="#1F1F1F" transform="translate(0,138)"/>
<path d="M0 0 C1.65 0 3.3 0 5 0 C6 1 6 1 6.09765625 4.16015625 C6.08605469 5.44792969 6.07445312 6.73570312 6.0625 8.0625 C6.05347656 9.35285156 6.04445312 10.64320313 6.03515625 11.97265625 C6.02355469 12.97167969 6.01195312 13.97070312 6 15 C10.455 14.505 10.455 14.505 15 14 C15.33 9.38 15.66 4.76 16 0 C17.65 0 19.3 0 21 0 C22 1 22 1 22.09765625 4.16015625 C22.08605469 5.44792969 22.07445312 6.73570312 22.0625 8.0625 C22.05347656 9.35285156 22.04445312 10.64320313 22.03515625 11.97265625 C22.02355469 12.97167969 22.01195312 13.97070312 22 15 C24.97 15 27.94 15 31 15 C30.98839844 14.00097656 30.97679687 13.00195312 30.96484375 11.97265625 C30.95582031 10.68230469 30.94679687 9.39195312 30.9375 8.0625 C30.92589844 6.77472656 30.91429687 5.48695313 30.90234375 4.16015625 C31 1 31 1 32 0 C34.5 -0.125 34.5 -0.125 37 0 C39.02692129 2.02692129 38.18507217 6.03748608 38.1875 8.8125 C38.19974609 9.53759766 38.21199219 10.26269531 38.22460938 11.00976562 C38.23540167 14.94175719 37.91156083 17.58835874 36 21 C31.19450253 21.02468447 26.38904182 21.04285255 21.58349609 21.05493164 C19.94807289 21.05996621 18.3126542 21.06679427 16.67724609 21.07543945 C14.32909025 21.08754335 11.98099381 21.093237 9.6328125 21.09765625 C8.53273361 21.10539818 8.53273361 21.10539818 7.41043091 21.11329651 C2.22774341 21.11387171 2.22774341 21.11387171 0 20 C0 13.4 0 6.8 0 0 Z " fill="#313131" transform="translate(199,138)"/>
<path d="M0 0 C1.04837036 -0.00287018 1.04837036 -0.00287018 2.11791992 -0.00579834 C3.59391643 -0.00715783 5.06992498 -0.00347782 6.54589844 0.00488281 C8.80430984 0.01558618 11.06192582 0.0049801 13.3203125 -0.0078125 C14.75521009 -0.00649086 16.19010718 -0.00392838 17.625 0 C18.93082031 0.00225586 20.23664063 0.00451172 21.58203125 0.00683594 C24.8125 0.265625 24.8125 0.265625 27.8125 2.265625 C28.15307617 4.23681641 28.15307617 4.23681641 28.10546875 6.6171875 C28.0909668 7.89335937 28.0909668 7.89335937 28.07617188 9.1953125 C28.05103516 10.08476562 28.02589844 10.97421875 28 11.890625 C27.97969727 13.23640625 27.97969727 13.23640625 27.95898438 14.609375 C27.92356925 16.82872289 27.87418461 19.04687688 27.8125 21.265625 C25.5025 21.265625 23.1925 21.265625 20.8125 21.265625 C20.8125 16.315625 20.8125 11.365625 20.8125 6.265625 C12.5625 6.265625 4.3125 6.265625 -4.1875 6.265625 C-4.1875 11.215625 -4.1875 16.165625 -4.1875 21.265625 C-6.1675 21.265625 -8.1475 21.265625 -10.1875 21.265625 C-10.27437496 18.14079938 -10.32784568 15.01628254 -10.375 11.890625 C-10.40013672 11.00117188 -10.42527344 10.11171875 -10.45117188 9.1953125 C-10.46083984 8.34453125 -10.47050781 7.49375 -10.48046875 6.6171875 C-10.4961792 5.83166504 -10.51188965 5.04614258 -10.52807617 4.23681641 C-10.41568604 3.58632324 -10.3032959 2.93583008 -10.1875 2.265625 C-6.45106456 -0.22533196 -4.46205265 0.00770838 0 0 Z " fill="#1F1F1F" transform="translate(90.1875,137.734375)"/>
<path d="M0 0 C0.70523804 0.00404846 1.41047607 0.00809692 2.13708496 0.01226807 C2.8619812 0.01035461 3.58687744 0.00844116 4.33374023 0.00646973 C5.86698758 0.0051082 7.40024646 0.00880243 8.93347168 0.01715088 C11.28415755 0.02785129 13.63407919 0.01725498 15.98474121 0.00445557 C17.47302415 0.00577717 18.96130662 0.00833957 20.44958496 0.01226807 C21.154823 0.0082196 21.86006104 0.00417114 22.58666992 0 C27.56341011 0.04796821 27.56341011 0.04796821 29.79333496 2.27789307 C30.02038574 4.24908447 30.02038574 4.24908447 29.98864746 6.62945557 C29.98220215 7.48023682 29.97575684 8.33101807 29.96911621 9.20758057 C29.9523584 10.09703369 29.93560059 10.98648682 29.91833496 11.90289307 C29.90931152 12.80008057 29.90028809 13.69726807 29.89099121 14.62164307 C29.86738466 16.84065892 29.83445806 19.05914384 29.79333496 21.27789307 C27.81333496 21.27789307 25.83333496 21.27789307 23.79333496 21.27789307 C23.79333496 16.32789307 23.79333496 11.37789307 23.79333496 6.27789307 C11.41833496 6.77289307 11.41833496 6.77289307 -1.20666504 7.27789307 C-1.20666504 11.89789307 -1.20666504 16.51789307 -1.20666504 21.27789307 C-3.18666504 21.27789307 -5.16666504 21.27789307 -7.20666504 21.27789307 C-7.26458348 18.15297055 -7.3002325 15.02818541 -7.33166504 11.90289307 C-7.34842285 11.01343994 -7.36518066 10.12398682 -7.38244629 9.20758057 C-7.3888916 8.35679932 -7.39533691 7.50601807 -7.40197754 6.62945557 C-7.41245117 5.84393311 -7.4229248 5.05841064 -7.43371582 4.24908447 C-6.91317716 -0.27008662 -3.81458032 0.03676676 0 0 Z " fill="#171717" transform="translate(127.2066650390625,137.72210693359375)"/>
<path d="M0 0 C1.98 0 3.96 0 6 0 C6 2.64 6 5.28 6 8 C14.58 8 23.16 8 32 8 C32 5.36 32 2.72 32 0 C33.66611905 -0.042721 35.33382885 -0.04063832 37 0 C38.73849628 1.73849628 38.17216296 4.0786637 38.1875 6.4375 C38.20167969 7.42621094 38.21585938 8.41492188 38.23046875 9.43359375 C38 12 38 12 36 14 C32.7421875 14.1953125 32.7421875 14.1953125 28.875 14.125 C26.95300781 14.09792969 26.95300781 14.09792969 24.9921875 14.0703125 C23.51105469 14.03550781 23.51105469 14.03550781 22 14 C22 16.31 22 18.62 22 21 C20.02 21 18.04 21 16 21 C16 18.69 16 16.38 16 14 C15.01257813 14.02320313 14.02515625 14.04640625 13.0078125 14.0703125 C11.72648438 14.08835938 10.44515625 14.10640625 9.125 14.125 C7.21074219 14.15980469 7.21074219 14.15980469 5.2578125 14.1953125 C2 14 2 14 0 12 C-0.1953125 9.1796875 -0.1953125 9.1796875 -0.125 5.875 C-0.10695312 4.77929688 -0.08890625 3.68359375 -0.0703125 2.5546875 C-0.04710937 1.71164063 -0.02390625 0.86859375 0 0 Z " fill="#292929" transform="translate(159,138)"/>
<path d="M0 0 C3.9303143 1.31010477 4.17008353 2.74375951 6 6.375 C7.7107684 9.75198554 9.1568891 12.48137458 12 15 C14 17 14 17 14.9375 19.0625 C15.90403542 21.34565884 15.90403542 21.34565884 19 22 C21.50360244 20.79291918 21.50360244 20.79291918 24.0625 19.0625 C28.81321185 16 28.81321185 16 31 16 C30.67 16.99 30.34 17.98 30 19 C30.66 19.66 31.32 20.32 32 21 C31.16855469 21.54269531 30.33710938 22.08539063 29.48046875 22.64453125 C28.39378906 23.35996094 27.30710938 24.07539062 26.1875 24.8125 C25.10855469 25.52019531 24.02960938 26.22789063 22.91796875 26.95703125 C20.08095906 28.81584345 20.08095906 28.81584345 18.25390625 30.75390625 C17 32 17 32 14.75 32.125 C8.09758846 29.40355892 3.86167379 23.24163543 0.8671875 16.91015625 C-0.78332331 11.37127987 -0.37050745 5.71404824 0 0 Z " fill="#373738" transform="translate(127,93)"/>
<path d="M0 0 C5.25105442 -0.02464928 10.50207545 -0.04283568 15.75317383 -0.05493164 C17.54094021 -0.05997218 19.32870245 -0.06680454 21.11645508 -0.07543945 C23.68051168 -0.0875173 26.24451397 -0.09323094 28.80859375 -0.09765625 C29.6127623 -0.10281754 30.41693085 -0.10797882 31.24546814 -0.11329651 C33.16401715 -0.11349215 35.08245368 -0.06201983 37 0 C38 1 38 1 38 6 C32.72 6 27.44 6 22 6 C22 10.95 22 15.9 22 21 C20.02 21 18.04 21 16 21 C15 20 15 20 14.90234375 17.05859375 C14.95117188 12.02929688 14.95117188 12.02929688 15 7 C10.05 6.67 5.1 6.34 0 6 C0 4.02 0 2.04 0 0 Z " fill="#3F3F3F" transform="translate(318,138)"/>
<path d="M0 0 C0.14695313 1.10408203 0.14695313 1.10408203 0.296875 2.23046875 C1.17082486 7.93374502 1.86152256 11.72357331 6 16 C6 16.66 6 17.32 6 18 C9.58752742 19.86551426 13.27812193 21.42535928 17 23 C17 23.66 17 24.32 17 25 C9.95371915 24.74377161 5.30417851 22.68788348 0 18 C-3.21756553 14.08695118 -5.51929007 10.12757261 -6 5 C-6.99 4.67 -7.98 4.34 -9 4 C-8.34 3.67 -7.68 3.34 -7 3 C-13.435 3.495 -13.435 3.495 -20 4 C-16.55403242 2.27701621 -13.69562313 1.25950343 -10 0.3125 C-8.96875 0.04050781 -7.9375 -0.23148438 -6.875 -0.51171875 C-4.11053448 -0.98122716 -2.60249272 -0.93214283 0 0 Z " fill="#515151" transform="translate(239,1)"/>
<path d="M0 0 C6.78661213 0.78914095 13.36149367 2.41274811 20 4 C20 4.33 20 4.66 20 5 C18.58297487 4.85769192 17.1663904 4.71099254 15.75 4.5625 C14.56664062 4.44068359 14.56664062 4.44068359 13.359375 4.31640625 C11.17635361 4.02365007 9.1226818 3.57935581 7 3 C7 3.66 7 4.32 7 5 C7.66 5.33 8.32 5.66 9 6 C8.01 6.33 7.02 6.66 6 7 C5.5875 8.19625 5.175 9.3925 4.75 10.625 C2.71783716 16.47008694 -0.96949556 20.26755311 -6.31640625 23.32421875 C-10.21233688 25.15344483 -12.61375529 26 -17 26 C-17 25.34 -17 24.68 -17 24 C-16.41992188 23.731875 -15.83984375 23.46375 -15.2421875 23.1875 C-9.29952507 20.20636241 -4.98944226 17.05995413 -2 11 C-1.00485832 7.35595461 -0.40018482 3.75345765 0 0 Z " fill="#5C5C5D" transform="translate(122,0)"/>
<path d="M0 0 C8.71148771 -0.53896831 15.81587199 3.35734738 22.32421875 9.0234375 C23.49209436 10.22314201 24.63287202 11.45052347 25.73046875 12.71484375 C26.14941406 13.13894531 26.56835938 13.56304687 27 14 C27.66 14 28.32 14 29 14 C29.12375 14.639375 29.2475 15.27875 29.375 15.9375 C29.58125 16.618125 29.7875 17.29875 30 18 C30.66 18.33 31.32 18.66 32 19 C29 20 29 20 26.10498047 18.60058594 C24.9356508 17.90639883 23.77344381 17.20012563 22.6171875 16.484375 C22.00231476 16.11274231 21.38744202 15.74110962 20.75393677 15.35821533 C19.45481128 14.56950257 18.15880424 13.77563382 16.86572266 12.97705078 C14.88374624 11.75539105 12.89026731 10.5544861 10.89453125 9.35546875 C9.63467564 8.58715128 8.37553584 7.81765858 7.1171875 7.046875 C6.22034744 6.50761383 6.22034744 6.50761383 5.3053894 5.9574585 C1.11516371 3.34549114 1.11516371 3.34549114 0 0 Z " fill="#383838" transform="translate(186,94)"/>
<path d="M0 0 C0.99 0.99 1.98 1.98 3 3 C2.29875 3.515625 1.5975 4.03125 0.875 4.5625 C-2.49467357 7.41939716 -5.21156604 10.58871997 -8 14 C-7.34 14.66 -6.68 15.32 -6 16 C-7.65 16.66 -9.3 17.32 -11 18 C-11.99 17.01 -12.98 16.02 -14 15 C-9.53648711 9.77674023 -4.9255107 4.79077028 0 0 Z " fill="#434343" transform="translate(196,78)"/>
<path d="M0 0 C2 0 2 0 4.125 2 C4.74375 2.66 5.3625 3.32 6 4 C5.67 2.68 5.34 1.36 5 0 C5.99 0.66 6.98 1.32 8 2 C8 2.66 8 3.32 8 4 C11.58752742 5.86551426 15.27812193 7.42535928 19 9 C19 9.66 19 10.32 19 11 C12.0447187 10.74708068 7.24458263 8.64613441 2 4 C0.7421875 1.80078125 0.7421875 1.80078125 0 0 Z " fill="#757575" transform="translate(237,15)"/>
<path d="M0 0 C0.66 0.33 1.32 0.66 2 1 C1.25 2.9375 1.25 2.9375 0 5 C-0.56976563 5.09539062 -1.13953125 5.19078125 -1.7265625 5.2890625 C-5.16705562 6.36495554 -7.20342042 8.88966159 -9.625 11.4375 C-10.11484375 11.94087891 -10.6046875 12.44425781 -11.109375 12.96289062 C-12.41207126 14.30295932 -13.7064941 15.65105813 -15 17 C-15.66 17.66 -16.32 18.32 -17 19 C-17 14.5401406 -16.85731172 14.13382575 -14 11 C-9.62421423 6.91819467 -4.91081645 3.40750529 0 0 Z " fill="#5D5D5D" transform="translate(199,74)"/>
<path d="M0 0 C0.66 0.33 1.32 0.66 2 1 C1.01 2.1446875 1.01 2.1446875 0 3.3125 C-2.29850538 5.84277939 -2.29850538 5.84277939 -2 9 C-3.6796875 10.38671875 -3.6796875 10.38671875 -5.875 11.6875 C-6.59429687 12.12449219 -7.31359375 12.56148437 -8.0546875 13.01171875 C-10 14 -10 14 -12 14 C-11.25 11.125 -11.25 11.125 -10 8 C-8.25 7 -8.25 7 -6 6 C-3.89344217 4.08964118 -1.96780232 2.05724788 0 0 Z " fill="#616161" transform="translate(156,100)"/>
<path d="M0 0 C-0.33 6.6 -0.66 13.2 -1 20 C-1.33 20 -1.66 20 -2 20 C-2.33 14.72 -2.66 9.44 -3 4 C-3.99 4.99 -4.98 5.98 -6 7 C-6.66 6.67 -7.32 6.34 -8 6 C-7.0479279 4.99403703 -6.08812654 3.99538437 -5.125 3 C-4.59132812 2.443125 -4.05765625 1.88625 -3.5078125 1.3125 C-2 0 -2 0 0 0 Z " fill="#919191" transform="translate(220,22)"/>
<path d="M0 0 C5.37188441 3.0019354 10.50295948 6.17357211 13 12 C13.66 12.33 14.32 12.66 15 13 C14.01 13.33 13.02 13.66 12 14 C9.3125 12.1875 9.3125 12.1875 7 10 C7 9.34 7 8.68 7 8 C5.43752272 6.49339338 5.43752272 6.49339338 3.5 5 C1.53125 3.4375 1.53125 3.4375 0 2 C0 1.34 0 0.68 0 0 Z " fill="#AAAAAA" transform="translate(203,100)"/>
<path d="M0 0 C0.99 0.33 1.98 0.66 3 1 C3.25007388 3.39528594 3.47552126 5.78879325 3.6875 8.1875 C3.79674805 9.19780273 3.79674805 9.19780273 3.90820312 10.22851562 C4.28659953 14.7915311 3.7638483 17.34092063 1 21 C0.4375 19.0625 0.4375 19.0625 0 17 C0.33 16.67 0.66 16.34 1 16 C1.09932392 13.68925832 1.12969618 11.37537058 1.125 9.0625 C1.12757813 7.79535156 1.13015625 6.52820312 1.1328125 5.22265625 C1.22506069 2.10845111 1.22506069 2.10845111 0 0 Z " fill="#9C9C9C" transform="translate(203,44)"/>
<path d="M0 0 C-3.64116773 3.33773709 -7.28607242 3.97864902 -12 5 C-11.25 3.0625 -11.25 3.0625 -10 1 C-6.79497337 -0.37358284 -3.44040362 -0.07819099 0 0 Z " fill="#070707" transform="translate(234,3)"/>
<path d="M0 0 C0 0.66 0 1.32 0 2 C-7.75 1.25 -7.75 1.25 -10 -1 C-6.06329512 -2.31223496 -3.87511856 -1.24296256 0 0 Z " fill="#868686" transform="translate(256,24)"/>
<path d="M0 0 C-0.33 0.99 -0.66 1.98 -1 3 C-0.34 3.66 0.32 4.32 1 5 C-0.65 5.66 -2.3 6.32 -4 7 C-4.33 5.35 -4.66 3.7 -5 2 C-2 0 -2 0 0 0 Z " fill="#606060" transform="translate(158,109)"/>
<path d="M0 0 C2 3 2 3 2 6 C3.65 5.67 5.3 5.34 7 5 C7 5.99 7 6.98 7 8 C5.02 8 3.04 8 1 8 C-1.125 3.375 -1.125 3.375 0 0 Z " fill="#878788" transform="translate(158,61)"/>
<path d="M0 0 C0.99 0 1.98 0 3 0 C3 0.66 3 1.32 3 2 C3.66 2.33 4.32 2.66 5 3 C0.25 6 0.25 6 -2 6 C-1.34 4.02 -0.68 2.04 0 0 Z " fill="#A7A7A7" transform="translate(146,108)"/>
<path d="M0 0 C0.99 0.495 0.99 0.495 2 1 C1.01 1.495 1.01 1.495 0 2 C0 1.34 0 0.68 0 0 Z " fill="#F7F7F7" transform="translate(113,17)"/>
<path d="" fill="#FAFAFA" transform="translate(0,0)"/>
<path d="M0 0 C2 1 2 1 2 1 Z " fill="#FAFAFA" transform="translate(159,96)"/>
<path d="" fill="#F3F3F3" transform="translate(0,0)"/>
<path d="M0 0 C2 1 2 1 2 1 Z " fill="#F7F7F7" transform="translate(205,17)"/>
<path d="" fill="#F9F9F9" transform="translate(0,0)"/>
<path d="" fill="#FFFFFF" transform="translate(0,0)"/>
<path d="" fill="#F7F7F7" transform="translate(0,0)"/>
<path d="" fill="#F3F3F3" transform="translate(0,0)"/>
<path d="" fill="#F8F8F8" transform="translate(0,0)"/>
<path d="" fill="#F3F3F3" transform="translate(0,0)"/>
<path d="" fill="#F5F5F4" transform="translate(0,0)"/>
<path d="" fill="#EFEFEF" transform="translate(0,0)"/>
<path d="" fill="#F8F8F8" transform="translate(0,0)"/>
<path d="" fill="#F9F9F9" transform="translate(0,0)"/>
<path d="" fill="#FCFCFC" transform="translate(0,0)"/>
<path d="" fill="#EEEEEE" transform="translate(0,0)"/>
<path d="" fill="#FDFDFD" transform="translate(0,0)"/>
<path d="" fill="#EEEEEE" transform="translate(0,0)"/>
<path d="" fill="#FDFDFD" transform="translate(0,0)"/>
<path d="" fill="#FFFFFF" transform="translate(0,0)"/>
<path d="" fill="#FCFCFC" transform="translate(0,0)"/>
<path d="" fill="#EFEFEF" transform="translate(0,0)"/>
<path d="" fill="#F0F0F0" transform="translate(0,0)"/>
<path d="" fill="#FFFFFF" transform="translate(0,0)"/>
<path d="" fill="#FFFFFF" transform="translate(0,0)"/>
<path d="" fill="#F2F2F2" transform="translate(0,0)"/>
<path d="" fill="#FFFFFF" transform="translate(0,0)"/>
<path d="" fill="#F5F5F5" transform="translate(0,0)"/>
<path d="" fill="#FFFFFF" transform="translate(0,0)"/>
<path d="" fill="#F9F9FA" transform="translate(0,0)"/>
<path d="" fill="#FEFEFE" transform="translate(0,0)"/>
<path d="" fill="#F8F8F8" transform="translate(0,0)"/>
<path d="" fill="#FBFBFB" transform="translate(0,0)"/>
<path d="" fill="#F5F5F5" transform="translate(0,0)"/>
<path d="" fill="#FEFEFE" transform="translate(0,0)"/>
<path d="" fill="#FDFDFD" transform="translate(0,0)"/>
<path d="" fill="#FCFCFC" transform="translate(0,0)"/>
<path d="" fill="#FAFAFA" transform="translate(0,0)"/>
<path d="" fill="#F9F9F9" transform="translate(0,0)"/>
<path d="" fill="#F8F8F8" transform="translate(0,0)"/>
<path d="" fill="#FEFEFE" transform="translate(0,0)"/>
<path d="" fill="#E6E6E6" transform="translate(0,0)"/>
<path d="" fill="#FDFDFD" transform="translate(0,0)"/>
<path d="" fill="#FFFFFF" transform="translate(0,0)"/>
<path d="" fill="#F7F7F6" transform="translate(0,0)"/>
<path d="" fill="#FAFAFA" transform="translate(0,0)"/>
<path d="" fill="#FFFFFF" transform="translate(0,0)"/>
<path d="" fill="#FFFFFF" transform="translate(0,0)"/>
<path d="" fill="#F8F8F7" transform="translate(0,0)"/>
<path d="" fill="#FAFAF9" transform="translate(0,0)"/>
<path d="" fill="#FDFDFD" transform="translate(0,0)"/>
<path d="" fill="#F3F3F3" transform="translate(0,0)"/>
<path d="" fill="#FEFEFE" transform="translate(0,0)"/>
<path d="" fill="#EFEFEF" transform="translate(0,0)"/>
<path d="" fill="#FFFFFF" transform="translate(0,0)"/>
<path d="" fill="#F9F9F9" transform="translate(0,0)"/>
<path d="" fill="#F5F5F5" transform="translate(0,0)"/>
<path d="" fill="#FCFCFC" transform="translate(0,0)"/>
<path d="" fill="#F3F3F3" transform="translate(0,0)"/>
<path d="" fill="#F8F8F8" transform="translate(0,0)"/>
<path d="" fill="#FCFCFC" transform="translate(0,0)"/>
<path d="" fill="#ECECEC" transform="translate(0,0)"/>
<path d="" fill="#FAFAF9" transform="translate(0,0)"/>
<path d="" fill="#FCFCFC" transform="translate(0,0)"/>
<path d="" fill="#F6F6F5" transform="translate(0,0)"/>
<path d="" fill="#FFFFFF" transform="translate(0,0)"/>
<path d="" fill="#EFEFEF" transform="translate(0,0)"/>
<path d="" fill="#FAFAFA" transform="translate(0,0)"/>
</svg>
